<svg xmlns="http://www.w3.org/2000/svg" version="1.1" xmlns:xlink="http://www.w3.org/1999/xlink" xmlns:svgjs="http://svgjs.dev/svgjs" width="1000" height="318" viewBox="0 0 1000 318"><g transform="matrix(1,0,0,1,-0.6060606060606233,-0.43264969980472756)"><svg viewBox="0 0 396 126" data-background-color="#ffffff" preserveAspectRatio="xMidYMid meet" height="318" width="1000" xmlns="http://www.w3.org/2000/svg" xmlns:xlink="http://www.w3.org/1999/xlink"><g id="tight-bounds" transform="matrix(1,0,0,1,0.2400000000000091,0.17142723954526673)"><svg viewBox="0 0 395.52 125.65714470283875" height="125.65714470283875" width="395.52"><g><svg viewBox="0 0 657.2577957202876 208.81153404099166" height="125.65714470283875" width="395.52"><g transform="matrix(1,0,0,1,259.7601957202877,57.69939815257292)"><svg viewBox="0 0 397.4975999999999 93.41273773584582" height="93.41273773584582" width="397.4975999999999"><g><svg viewBox="0 0 397.4975999999999 93.41273773584582" height="93.41273773584582" width="397.4975999999999"><g><rect width="397.4975999999999" height="5.3887513475499285" x="0" y="66.10282565801438" fill="#8dbdff" opacity="1" stroke-width="0" stroke="transparent" fill-opacity="1" class="rect-o-0" data-fill-palette-color="primary" rx="1%" id="o-0" data-palette-color="#8dbdff"></rect></g><g transform="matrix(1,0,0,1,0.9887999999999693,0)"><svg viewBox="0 0 395.52 59.75482014388489" height="59.75482014388489" width="395.52"><g transform="matrix(1,0,0,1,0,0)"><svg width="395.52" viewBox="3.299999952316284 -35 236.27999877929688 35.70000076293945" height="59.75482014388489" data-palette-color="#8dbdff"><path d="M3.3 0L3.3-35 21.75-35 21.75-30.85 7.85-30.85 7.85-20.45 18.6-20.45 18.6-16.25 7.85-16.25 7.85 0 3.3 0ZM26.2 0L26.2-35 30.8-35 30.8 0 26.2 0ZM44.1 0L44.1-30.85 35.4-30.85 35.4-35 57.4-35 57.4-30.85 48.7-30.85 48.7 0 44.1 0ZM86.99-18.85Q92.64-16.75 92.64-10L92.64-10Q92.64-5.4 89.97-2.7 87.29 0 82.59 0L82.59 0 71.29 0 71.29-35 80.39-35Q85.04-35 87.59-32.83 90.14-30.65 90.14-26.4L90.14-26.4Q90.14-23.9 89.34-21.93 88.54-19.95 86.99-18.85L86.99-18.85ZM75.84-30.85L75.84-20.4 79.84-20.4Q82.84-20.4 84.07-21.53 85.29-22.65 85.29-25.7L85.29-25.7Q85.29-28.65 84.07-29.75 82.84-30.85 79.84-30.85L79.84-30.85 75.84-30.85ZM82.19-4.15Q84.74-4.15 86.22-5.68 87.69-7.2 87.69-10.15L87.69-10.15Q87.69-13.35 86.27-14.78 84.84-16.2 82.19-16.2L82.19-16.2 75.84-16.2 75.84-4.15 82.19-4.15ZM109.94 0.7Q103.59 0.7 100.54-3.1 97.49-6.9 97.49-13.85L97.49-13.85 97.49-35 102.04-35 102.04-15.15Q102.04-11.5 102.61-9 103.19-6.5 104.94-4.98 106.69-3.45 109.94-3.45L109.94-3.45Q113.24-3.45 114.99-4.98 116.74-6.5 117.31-9 117.89-11.5 117.89-15.15L117.89-15.15 117.89-35 122.44-35 122.44-13.85Q122.44-6.85 119.39-3.08 116.34 0.7 109.94 0.7L109.94 0.7ZM129.09 0L129.09-35 133.69-35 133.69 0 129.09 0ZM140.68 0L140.68-35 145.23-35 145.23-4.15 158.58-4.15 158.58 0 140.68 0ZM162.18 0L162.18-35 173.38-35Q177.73-35 181.11-32.9 184.48-30.8 186.38-26.85 188.28-22.9 188.28-17.5L188.28-17.5Q188.28-12.1 186.38-8.15 184.48-4.2 181.11-2.1 177.73 0 173.38 0L173.38 0 162.18 0ZM166.73-4.15L172.53-4.15Q177.78-4.15 180.51-7.65 183.23-11.15 183.23-17.5L183.23-17.5Q183.23-23.85 180.51-27.35 177.78-30.85 172.53-30.85L172.53-30.85 166.73-30.85 166.73-4.15ZM193.13 0L193.13-35 211.83-35 211.83-30.85 197.68-30.85 197.68-20.4 208.88-20.4 208.88-16.2 197.68-16.2 197.68-4.15 212.23-4.15 212.23 0 193.13 0ZM217.33 0L217.33-35 226.33-35Q231.83-35 234.9-32.27 237.98-29.55 237.98-24.3L237.98-24.3Q237.98-21.3 236.55-18.88 235.13-16.45 232.58-15.05L232.58-15.05 239.58 0 234.18 0 227.93-13.7Q227.13-13.6 226.28-13.6L226.28-13.6 221.88-13.6 221.88 0 217.33 0ZM221.88-17.8L225.93-17.8Q229.73-17.8 231.48-19.45 233.23-21.1 233.23-24.3L233.23-24.3Q233.23-27.55 231.48-29.2 229.73-30.85 225.93-30.85L225.93-30.85 221.88-30.85 221.88-17.8Z" opacity="1" transform="matrix(1,0,0,1,0,0)" fill="#8dbdff" class="undefined-text-0" data-fill-palette-color="primary" id="text-0"></path></svg></g></svg></g><g transform="matrix(1,0,0,1,0,77.8395825196938)"><svg viewBox="0 0 232.209792 15.573155216152017" height="15.573155216152017" width="232.209792"><g transform="matrix(1,0,0,1,0,0)"><svg width="232.209792" viewBox="0.75 -36.380001068115234 676.1699829101562 45.18000030517578" height="15.573155216152017" data-palette-color="#77d4fc"><path d="M7.35 0L4.98 0 4.98-22.28 1.48-22.5Q0.75-22.55 0.75-23.13L0.75-23.13 0.75-24.1 4.98-24.1 4.98-27.25Q4.98-29.38 5.53-30.99 6.08-32.6 7.08-33.68 8.08-34.75 9.49-35.29 10.9-35.83 12.6-35.83L12.6-35.83Q13.38-35.83 14.16-35.69 14.95-35.55 15.55-35.3L15.55-35.3 15.48-34.15Q15.45-33.8 15-33.8L15-33.8Q14.7-33.8 14.19-33.88 13.68-33.95 12.93-33.95L12.93-33.95Q11.7-33.95 10.66-33.59 9.63-33.23 8.88-32.43 8.13-31.63 7.71-30.34 7.3-29.05 7.3-27.18L7.3-27.18 7.3-24.1 15.38-24.1 15.38-22.33 7.35-22.33 7.35 0ZM20.85-24.88L23.22-24.88 23.22 0 20.85 0 20.85-24.88ZM24.27-33.45L24.27-33.45Q24.27-33 24.09-32.61 23.9-32.23 23.6-31.93 23.3-31.63 22.9-31.45 22.5-31.28 22.05-31.28L22.05-31.28Q21.6-31.28 21.2-31.45 20.8-31.63 20.5-31.93 20.2-32.23 20.02-32.61 19.85-33 19.85-33.45L19.85-33.45Q19.85-33.9 20.02-34.31 20.2-34.73 20.5-35.02 20.8-35.33 21.2-35.5 21.6-35.68 22.05-35.68L22.05-35.68Q22.5-35.68 22.9-35.5 23.3-35.33 23.6-35.02 23.9-34.73 24.09-34.31 24.27-33.9 24.27-33.45ZM34.39 0L32.02 0 32.02-24.88 33.32-24.88Q33.97-24.88 34.07-24.25L34.07-24.25 34.3-20.5Q35.99-22.65 38.26-23.96 40.52-25.28 43.3-25.28L43.3-25.28Q45.34-25.28 46.91-24.63 48.47-23.98 49.5-22.75 50.52-21.53 51.05-19.8 51.57-18.07 51.57-15.9L51.57-15.9 51.57 0 49.2 0 49.2-15.9Q49.2-19.4 47.59-21.39 46-23.38 42.7-23.38L42.7-23.38Q40.24-23.38 38.14-22.11 36.05-20.85 34.39-18.65L34.39-18.65 34.39 0ZM78.02 0L76.69 0Q76.07 0 75.97-0.65L75.97-0.65 75.72-4.58Q74.07-2.33 71.86-1 69.64 0.33 66.89 0.33L66.89 0.33Q62.32 0.33 59.75-2.85 57.19-6.03 57.19-12.38L57.19-12.38Q57.19-15.1 57.91-17.46 58.62-19.83 60-21.56 61.39-23.3 63.41-24.3 65.42-25.3 68.04-25.3L68.04-25.3Q70.57-25.3 72.42-24.36 74.27-23.43 75.62-21.63L75.62-21.63 75.62-36.38 78.02-36.38 78.02 0ZM67.57-1.6L67.57-1.6Q70.04-1.6 72.04-2.88 74.04-4.15 75.62-6.43L75.62-6.43 75.62-19.55Q74.17-21.68 72.43-22.55 70.69-23.43 68.49-23.43L68.49-23.43Q66.29-23.43 64.64-22.63 62.99-21.83 61.88-20.36 60.77-18.9 60.2-16.86 59.64-14.83 59.64-12.38L59.64-12.38Q59.64-6.83 61.69-4.21 63.74-1.6 67.57-1.6ZM115.74-24.88L101.44 8Q101.29 8.35 101.05 8.58 100.81 8.8 100.36 8.8L100.36 8.8 98.66 8.8 103.04-0.93 92.51-24.88 94.49-24.88Q94.86-24.88 95.08-24.69 95.29-24.5 95.39-24.28L95.39-24.28 103.76-4.93Q103.91-4.55 104.03-4.16 104.14-3.78 104.24-3.38L104.24-3.38Q104.36-3.78 104.5-4.16 104.64-4.55 104.79-4.93L104.79-4.93 113.06-24.28Q113.19-24.55 113.41-24.71 113.64-24.88 113.91-24.88L113.91-24.88 115.74-24.88ZM129.38-25.28L129.38-25.28Q132.06-25.28 134.17-24.36 136.28-23.45 137.74-21.78 139.19-20.1 139.95-17.74 140.71-15.38 140.71-12.45L140.71-12.45Q140.71-9.53 139.95-7.18 139.19-4.83 137.74-3.15 136.28-1.48 134.17-0.58 132.06 0.33 129.38 0.33L129.38 0.33Q126.71 0.33 124.6-0.58 122.48-1.48 121.02-3.15 119.56-4.83 118.8-7.18 118.03-9.53 118.03-12.45L118.03-12.45Q118.03-15.38 118.8-17.74 119.56-20.1 121.02-21.78 122.48-23.45 124.6-24.36 126.71-25.28 129.38-25.28ZM129.38-1.55L129.38-1.55Q131.61-1.55 133.27-2.31 134.94-3.08 136.05-4.5 137.16-5.93 137.71-7.94 138.26-9.95 138.26-12.45L138.26-12.45Q138.26-14.93 137.71-16.95 137.16-18.98 136.05-20.41 134.94-21.85 133.27-22.63 131.61-23.4 129.38-23.4L129.38-23.4Q127.16-23.4 125.5-22.63 123.83-21.85 122.72-20.41 121.61-18.98 121.05-16.95 120.48-14.93 120.48-12.45L120.48-12.45Q120.48-9.95 121.05-7.94 121.61-5.93 122.72-4.5 123.83-3.08 125.5-2.31 127.16-1.55 129.38-1.55ZM146.33-24.88L148.73-24.88 148.73-8.97Q148.73-5.48 150.33-3.49 151.93-1.5 155.21-1.5L155.21-1.5Q157.63-1.5 159.73-2.74 161.83-3.98 163.51-6.18L163.51-6.18 163.51-24.88 165.91-24.88 165.91 0 164.58 0Q163.88 0 163.86-0.65L163.86-0.65 163.63-4.35Q161.91-2.2 159.65-0.9 157.38 0.4 154.61 0.4L154.61 0.4Q152.53 0.4 150.98-0.25 149.43-0.9 148.41-2.13 147.38-3.35 146.86-5.08 146.33-6.8 146.33-8.97L146.33-8.97 146.33-24.88ZM176.38 0L174.01 0 174.01-24.88 175.26-24.88Q175.68-24.88 175.87-24.7 176.06-24.53 176.08-24.1L176.08-24.1 176.28-18.85Q177.48-21.88 179.48-23.59 181.48-25.3 184.41-25.3L184.41-25.3Q185.53-25.3 186.48-25.06 187.43-24.83 188.28-24.38L188.28-24.38 187.96-22.73Q187.88-22.33 187.46-22.33L187.46-22.33Q187.31-22.33 187.03-22.43 186.76-22.53 186.34-22.65 185.93-22.78 185.33-22.88 184.73-22.98 183.96-22.98L183.96-22.98Q181.13-22.98 179.32-21.23 177.51-19.48 176.38-16.18L176.38-16.18 176.38 0ZM205.88 0L203.5 0 203.5-24.88 204.8-24.88Q205.45-24.88 205.55-24.25L205.55-24.25 205.78-20.5Q207.48-22.65 209.74-23.96 212-25.28 214.78-25.28L214.78-25.28Q216.83-25.28 218.39-24.63 219.95-23.98 220.98-22.75 222-21.53 222.53-19.8 223.05-18.07 223.05-15.9L223.05-15.9 223.05 0 220.68 0 220.68-15.9Q220.68-19.4 219.08-21.39 217.48-23.38 214.18-23.38L214.18-23.38Q211.73-23.38 209.63-22.11 207.53-20.85 205.88-18.65L205.88-18.65 205.88 0ZM239.92-25.28L239.92-25.28Q242.02-25.28 243.81-24.55 245.6-23.83 246.91-22.44 248.22-21.05 248.96-19.03 249.7-17 249.7-14.38L249.7-14.38Q249.7-13.83 249.54-13.63 249.37-13.43 249.02-13.43L249.02-13.43 231.05-13.43 231.05-12.95Q231.05-10.15 231.7-8.03 232.35-5.9 233.55-4.46 234.75-3.03 236.45-2.3 238.15-1.58 240.25-1.58L240.25-1.58Q242.12-1.58 243.5-1.99 244.87-2.4 245.81-2.91 246.75-3.43 247.3-3.84 247.85-4.25 248.1-4.25L248.1-4.25Q248.42-4.25 248.6-4L248.6-4 249.25-3.2Q248.65-2.45 247.66-1.8 246.67-1.15 245.46-0.69 244.25-0.23 242.86 0.05 241.47 0.33 240.07 0.33L240.07 0.33Q237.52 0.33 235.42-0.56 233.32-1.45 231.82-3.15 230.32-4.85 229.51-7.31 228.7-9.78 228.7-12.95L228.7-12.95Q228.7-15.63 229.46-17.89 230.22-20.15 231.66-21.79 233.1-23.43 235.19-24.35 237.27-25.28 239.92-25.28ZM239.95-23.5L239.95-23.5Q238.02-23.5 236.5-22.9 234.97-22.3 233.86-21.18 232.75-20.05 232.06-18.48 231.37-16.9 231.15-14.95L231.15-14.95 247.55-14.95Q247.55-16.95 247-18.54 246.45-20.13 245.45-21.23 244.45-22.33 243.05-22.91 241.65-23.5 239.95-23.5ZM251.42 0L260.42-12.73 251.77-24.88 254.05-24.88Q254.4-24.88 254.56-24.73 254.72-24.58 254.85-24.38L254.85-24.38 262.15-13.83Q262.25-14.25 262.57-14.73L262.57-14.73 269.4-24.35Q269.52-24.58 269.71-24.73 269.9-24.88 270.15-24.88L270.15-24.88 272.35-24.88 263.65-12.85 272.7 0 270.42 0Q270.07 0 269.87-0.21 269.67-0.43 269.55-0.63L269.55-0.63 262-11.63Q261.87-11.13 261.62-10.78L261.62-10.78 254.37-0.58Q254.2-0.35 254.01-0.18 253.82 0 253.55 0L253.55 0 251.42 0ZM284.42 0.4L284.42 0.4Q281.89 0.4 280.48-1 279.07-2.4 279.07-5.33L279.07-5.33 279.07-22.33 275.49-22.33Q275.22-22.33 275.04-22.48 274.87-22.63 274.87-22.9L274.87-22.9 274.87-23.83 279.12-24.13 279.72-33.02Q279.74-33.25 279.91-33.43 280.07-33.6 280.34-33.6L280.34-33.6 281.47-33.6 281.47-24.1 289.29-24.1 289.29-22.33 281.47-22.33 281.47-5.45Q281.47-4.42 281.73-3.69 281.99-2.95 282.46-2.48 282.92-2 283.54-1.78 284.17-1.55 284.89-1.55L284.89-1.55Q285.79-1.55 286.44-1.81 287.09-2.08 287.57-2.39 288.04-2.7 288.34-2.96 288.64-3.23 288.82-3.23L288.82-3.23Q289.02-3.23 289.22-2.98L289.22-2.98 289.87-1.93Q288.92-0.88 287.46-0.24 285.99 0.4 284.42 0.4ZM306.79 0L305.34 0 305.34-36.38 307.74-36.38 307.74-20.53Q309.39-22.73 311.56-24 313.74-25.28 316.46-25.28L316.46-25.28Q321.04-25.28 323.6-22.11 326.16-18.95 326.16-12.6L326.16-12.6Q326.16-9.88 325.45-7.51 324.74-5.15 323.35-3.41 321.96-1.68 319.95-0.68 317.94 0.33 315.31 0.33L315.31 0.33Q312.71 0.33 310.84-0.69 308.96-1.7 307.61-3.68L307.61-3.68 307.46-0.63Q307.39 0 306.79 0L306.79 0ZM315.79-23.38L315.79-23.38Q313.31-23.38 311.31-22.1 309.31-20.83 307.74-18.55L307.74-18.55 307.74-5.43Q309.16-3.28 310.89-2.41 312.61-1.55 314.86-1.55L314.86-1.55Q317.06-1.55 318.71-2.35 320.36-3.15 321.48-4.61 322.59-6.08 323.15-8.11 323.71-10.15 323.71-12.6L323.71-12.6Q323.71-18.15 321.66-20.76 319.61-23.38 315.79-23.38ZM341.76-25.28L341.76-25.28Q343.86-25.28 345.65-24.55 347.44-23.83 348.75-22.44 350.06-21.05 350.8-19.03 351.54-17 351.54-14.38L351.54-14.38Q351.54-13.83 351.37-13.63 351.21-13.43 350.86-13.43L350.86-13.43 332.89-13.43 332.89-12.95Q332.89-10.15 333.54-8.03 334.19-5.9 335.39-4.46 336.59-3.03 338.29-2.3 339.99-1.58 342.09-1.58L342.09-1.58Q343.96-1.58 345.34-1.99 346.71-2.4 347.65-2.91 348.59-3.43 349.14-3.84 349.69-4.25 349.94-4.25L349.94-4.25Q350.26-4.25 350.44-4L350.44-4 351.09-3.2Q350.49-2.45 349.5-1.8 348.51-1.15 347.3-0.69 346.09-0.23 344.7 0.05 343.31 0.33 341.91 0.33L341.91 0.33Q339.36 0.33 337.26-0.56 335.16-1.45 333.66-3.15 332.16-4.85 331.35-7.31 330.54-9.78 330.54-12.95L330.54-12.95Q330.54-15.63 331.3-17.89 332.06-20.15 333.5-21.79 334.94-23.43 337.02-24.35 339.11-25.28 341.76-25.28ZM341.79-23.5L341.79-23.5Q339.86-23.5 338.34-22.9 336.81-22.3 335.7-21.18 334.59-20.05 333.9-18.48 333.21-16.9 332.99-14.95L332.99-14.95 349.39-14.95Q349.39-16.95 348.84-18.54 348.29-20.13 347.29-21.23 346.29-22.33 344.89-22.91 343.49-23.5 341.79-23.5ZM372.16-22.63L371.63-21.8Q371.46-21.45 371.08-21.45L371.08-21.45Q370.81-21.45 370.37-21.76 369.93-22.08 369.22-22.46 368.51-22.85 367.47-23.16 366.43-23.48 364.93-23.48L364.93-23.48Q363.58-23.48 362.47-23.09 361.36-22.7 360.57-22.05 359.78-21.4 359.35-20.54 358.91-19.68 358.91-18.73L358.91-18.73Q358.91-17.55 359.51-16.78 360.11-16 361.08-15.45 362.06-14.9 363.3-14.5 364.53-14.1 365.83-13.7 367.13-13.3 368.37-12.81 369.61-12.33 370.58-11.6 371.56-10.88 372.16-9.83 372.76-8.78 372.76-7.28L372.76-7.28Q372.76-5.65 372.17-4.25 371.58-2.85 370.47-1.83 369.36-0.8 367.73-0.2 366.11 0.4 364.03 0.4L364.03 0.4Q361.41 0.4 359.51-0.44 357.61-1.28 356.11-2.63L356.11-2.63 356.68-3.48Q356.81-3.68 356.96-3.78 357.11-3.88 357.38-3.88L357.38-3.88Q357.71-3.88 358.18-3.48 358.66-3.08 359.42-2.61 360.18-2.15 361.32-1.75 362.46-1.35 364.13-1.35L364.13-1.35Q365.71-1.35 366.91-1.79 368.11-2.23 368.91-2.98 369.71-3.73 370.12-4.74 370.53-5.75 370.53-6.88L370.53-6.88Q370.53-8.13 369.93-8.95 369.33-9.78 368.36-10.35 367.38-10.93 366.15-11.33 364.91-11.73 363.6-12.13 362.28-12.53 361.05-13 359.81-13.48 358.83-14.2 357.86-14.93 357.26-15.96 356.66-17 356.66-18.55L356.66-18.55Q356.66-19.88 357.23-21.1 357.81-22.33 358.87-23.25 359.93-24.18 361.46-24.73 362.98-25.28 364.88-25.28L364.88-25.28Q367.16-25.28 368.92-24.63 370.68-23.98 372.16-22.63L372.16-22.63ZM386.23 0.4L386.23 0.4Q383.71 0.4 382.29-1 380.88-2.4 380.88-5.33L380.88-5.33 380.88-22.33 377.31-22.33Q377.03-22.33 376.86-22.48 376.68-22.63 376.68-22.9L376.68-22.9 376.68-23.83 380.93-24.13 381.53-33.02Q381.56-33.25 381.72-33.43 381.88-33.6 382.16-33.6L382.16-33.6 383.28-33.6 383.28-24.1 391.11-24.1 391.11-22.33 383.28-22.33 383.28-5.45Q383.28-4.42 383.54-3.69 383.81-2.95 384.27-2.48 384.73-2 385.36-1.78 385.98-1.55 386.71-1.55L386.71-1.55Q387.61-1.55 388.26-1.81 388.91-2.08 389.38-2.39 389.86-2.7 390.16-2.96 390.46-3.23 390.63-3.23L390.63-3.23Q390.83-3.23 391.03-2.98L391.03-2.98 391.68-1.93Q390.73-0.88 389.27-0.24 387.81 0.4 386.23 0.4ZM410.2 0L407.83 0 407.83-22.28 404.33-22.5Q403.6-22.55 403.6-23.13L403.6-23.13 403.6-24.1 407.83-24.1 407.83-27.25Q407.83-29.38 408.38-30.99 408.93-32.6 409.93-33.68 410.93-34.75 412.34-35.29 413.75-35.83 415.45-35.83L415.45-35.83Q416.23-35.83 417.01-35.69 417.8-35.55 418.4-35.3L418.4-35.3 418.33-34.15Q418.3-33.8 417.85-33.8L417.85-33.8Q417.55-33.8 417.04-33.88 416.53-33.95 415.78-33.95L415.78-33.95Q414.55-33.95 413.51-33.59 412.48-33.23 411.73-32.43 410.98-31.63 410.56-30.34 410.15-29.05 410.15-27.18L410.15-27.18 410.15-24.1 418.23-24.1 418.23-22.33 410.2-22.33 410.2 0ZM423.7-24.88L426.07-24.88 426.07 0 423.7 0 423.7-24.88ZM427.12-33.45L427.12-33.45Q427.12-33 426.94-32.61 426.75-32.23 426.45-31.93 426.15-31.63 425.75-31.45 425.35-31.28 424.9-31.28L424.9-31.28Q424.45-31.28 424.05-31.45 423.65-31.63 423.35-31.93 423.05-32.23 422.87-32.61 422.7-33 422.7-33.45L422.7-33.45Q422.7-33.9 422.87-34.31 423.05-34.73 423.35-35.02 423.65-35.33 424.05-35.5 424.45-35.68 424.9-35.68L424.9-35.68Q425.35-35.68 425.75-35.5 426.15-35.33 426.45-35.02 426.75-34.73 426.94-34.31 427.12-33.9 427.12-33.45ZM441.67 0.4L441.67 0.4Q439.15 0.4 437.73-1 436.32-2.4 436.32-5.33L436.32-5.33 436.32-22.33 432.75-22.33Q432.47-22.33 432.3-22.48 432.12-22.63 432.12-22.9L432.12-22.9 432.12-23.83 436.37-24.13 436.97-33.02Q437-33.25 437.16-33.43 437.32-33.6 437.6-33.6L437.6-33.6 438.72-33.6 438.72-24.1 446.55-24.1 446.55-22.33 438.72-22.33 438.72-5.45Q438.72-4.42 438.98-3.69 439.25-2.95 439.71-2.48 440.17-2 440.8-1.78 441.42-1.55 442.15-1.55L442.15-1.55Q443.05-1.55 443.7-1.81 444.35-2.08 444.82-2.39 445.3-2.7 445.6-2.96 445.9-3.23 446.07-3.23L446.07-3.23Q446.27-3.23 446.47-2.98L446.47-2.98 447.12-1.93Q446.17-0.88 444.71-0.24 443.25 0.4 441.67 0.4ZM463.04-24.88L465.42-24.88 465.42 0 463.04 0 463.04-24.88ZM466.47-33.45L466.47-33.45Q466.47-33 466.28-32.61 466.09-32.23 465.79-31.93 465.49-31.63 465.09-31.45 464.69-31.28 464.24-31.28L464.24-31.28Q463.79-31.28 463.39-31.45 462.99-31.63 462.69-31.93 462.39-32.23 462.22-32.61 462.04-33 462.04-33.45L462.04-33.45Q462.04-33.9 462.22-34.31 462.39-34.73 462.69-35.02 462.99-35.33 463.39-35.5 463.79-35.68 464.24-35.68L464.24-35.68Q464.69-35.68 465.09-35.5 465.49-35.33 465.79-35.02 466.09-34.73 466.28-34.31 466.47-33.9 466.47-33.45ZM476.59 0L474.21 0 474.21-24.88 475.51-24.88Q476.16-24.88 476.26-24.25L476.26-24.25 476.49-20.5Q478.19-22.65 480.45-23.96 482.71-25.28 485.49-25.28L485.49-25.28Q487.54-25.28 489.1-24.63 490.66-23.98 491.69-22.75 492.71-21.53 493.24-19.8 493.76-18.07 493.76-15.9L493.76-15.9 493.76 0 491.39 0 491.39-15.9Q491.39-19.4 489.79-21.39 488.19-23.38 484.89-23.38L484.89-23.38Q482.44-23.38 480.34-22.11 478.24-20.85 476.59-18.65L476.59-18.65 476.59 0ZM525.13-22.63L524.61-21.8Q524.43-21.45 524.06-21.45L524.06-21.45Q523.78-21.45 523.35-21.76 522.91-22.08 522.2-22.46 521.48-22.85 520.45-23.16 519.41-23.48 517.91-23.48L517.91-23.48Q516.56-23.48 515.45-23.09 514.33-22.7 513.55-22.05 512.76-21.4 512.32-20.54 511.88-19.68 511.88-18.73L511.88-18.73Q511.88-17.55 512.48-16.78 513.08-16 514.06-15.45 515.03-14.9 516.27-14.5 517.51-14.1 518.81-13.7 520.11-13.3 521.35-12.81 522.58-12.33 523.56-11.6 524.53-10.88 525.13-9.83 525.73-8.78 525.73-7.28L525.73-7.28Q525.73-5.65 525.14-4.25 524.56-2.85 523.45-1.83 522.33-0.8 520.71-0.2 519.08 0.4 517.01 0.4L517.01 0.4Q514.38 0.4 512.48-0.44 510.58-1.28 509.08-2.63L509.08-2.63 509.66-3.48Q509.78-3.68 509.93-3.78 510.08-3.88 510.36-3.88L510.36-3.88Q510.68-3.88 511.16-3.48 511.63-3.08 512.39-2.61 513.16-2.15 514.3-1.75 515.43-1.35 517.11-1.35L517.11-1.35Q518.68-1.35 519.88-1.79 521.08-2.23 521.88-2.98 522.68-3.73 523.1-4.74 523.51-5.75 523.51-6.88L523.51-6.88Q523.51-8.13 522.91-8.95 522.31-9.78 521.33-10.35 520.36-10.93 519.12-11.33 517.88-11.73 516.57-12.13 515.26-12.53 514.02-13 512.78-13.48 511.81-14.2 510.83-14.93 510.23-15.96 509.63-17 509.63-18.55L509.63-18.55Q509.63-19.88 510.21-21.1 510.78-22.33 511.85-23.25 512.91-24.18 514.43-24.73 515.96-25.28 517.86-25.28L517.86-25.28Q520.13-25.28 521.89-24.63 523.66-23.98 525.13-22.63L525.13-22.63ZM541.78-25.28L541.78-25.28Q543.88-25.28 545.67-24.55 547.46-23.83 548.77-22.44 550.08-21.05 550.82-19.03 551.56-17 551.56-14.38L551.56-14.38Q551.56-13.83 551.39-13.63 551.23-13.43 550.88-13.43L550.88-13.43 532.9-13.43 532.9-12.95Q532.9-10.15 533.56-8.03 534.21-5.9 535.4-4.46 536.61-3.03 538.31-2.3 540-1.58 542.11-1.58L542.11-1.58Q543.98-1.58 545.36-1.99 546.73-2.4 547.67-2.91 548.61-3.43 549.15-3.84 549.71-4.25 549.96-4.25L549.96-4.25Q550.28-4.25 550.46-4L550.46-4 551.11-3.2Q550.5-2.45 549.52-1.8 548.53-1.15 547.32-0.69 546.11-0.23 544.72 0.05 543.33 0.33 541.93 0.33L541.93 0.33Q539.38 0.33 537.28-0.56 535.18-1.45 533.68-3.15 532.18-4.85 531.37-7.31 530.56-9.78 530.56-12.95L530.56-12.95Q530.56-15.63 531.32-17.89 532.08-20.15 533.52-21.79 534.96-23.43 537.04-24.35 539.13-25.28 541.78-25.28ZM541.81-23.5L541.81-23.5Q539.88-23.5 538.36-22.9 536.83-22.3 535.72-21.18 534.61-20.05 533.92-18.48 533.23-16.9 533-14.95L533-14.95 549.4-14.95Q549.4-16.95 548.86-18.54 548.31-20.13 547.31-21.23 546.31-22.33 544.9-22.91 543.5-23.5 541.81-23.5ZM574.95-22.4L574.33-21.55Q574.2-21.43 574.09-21.34 573.98-21.25 573.78-21.25L573.78-21.25Q573.53-21.25 573.09-21.59 572.65-21.93 571.93-22.33 571.2-22.73 570.11-23.06 569.03-23.4 567.48-23.4L567.48-23.4Q565.33-23.4 563.66-22.64 562-21.88 560.86-20.45 559.73-19.03 559.13-17 558.53-14.98 558.53-12.45L558.53-12.45Q558.53-9.83 559.14-7.8 559.75-5.78 560.88-4.39 562-3 563.6-2.27 565.2-1.55 567.15-1.55L567.15-1.55Q568.95-1.55 570.16-1.98 571.38-2.4 572.16-2.9 572.95-3.4 573.41-3.83 573.88-4.25 574.15-4.25L574.15-4.25Q574.48-4.25 574.65-4L574.65-4 575.3-3.2Q574.73-2.45 573.85-1.8 572.98-1.15 571.88-0.68 570.78-0.2 569.49 0.06 568.2 0.33 566.8 0.33L566.8 0.33Q564.43 0.33 562.46-0.54 560.5-1.4 559.09-3.04 557.68-4.67 556.89-7.05 556.1-9.43 556.1-12.45L556.1-12.45Q556.1-15.3 556.85-17.65 557.6-20 559.04-21.7 560.48-23.4 562.56-24.34 564.65-25.28 567.35-25.28L567.35-25.28Q569.78-25.28 571.66-24.5 573.55-23.73 574.95-22.4L574.95-22.4ZM590.17-25.28L590.17-25.28Q592.85-25.28 594.96-24.36 597.07-23.45 598.52-21.78 599.97-20.1 600.74-17.74 601.5-15.38 601.5-12.45L601.5-12.45Q601.5-9.53 600.74-7.18 599.97-4.83 598.52-3.15 597.07-1.48 594.96-0.58 592.85 0.33 590.17 0.33L590.17 0.33Q587.5 0.33 585.39-0.58 583.27-1.48 581.81-3.15 580.35-4.83 579.59-7.18 578.82-9.53 578.82-12.45L578.82-12.45Q578.82-15.38 579.59-17.74 580.35-20.1 581.81-21.78 583.27-23.45 585.39-24.36 587.5-25.28 590.17-25.28ZM590.17-1.55L590.17-1.55Q592.4-1.55 594.06-2.31 595.72-3.08 596.84-4.5 597.95-5.93 598.5-7.94 599.05-9.95 599.05-12.45L599.05-12.45Q599.05-14.93 598.5-16.95 597.95-18.98 596.84-20.41 595.72-21.85 594.06-22.63 592.4-23.4 590.17-23.4L590.17-23.4Q587.95-23.4 586.29-22.63 584.62-21.85 583.51-20.41 582.4-18.98 581.84-16.95 581.27-14.93 581.27-12.45L581.27-12.45Q581.27-9.95 581.84-7.94 582.4-5.93 583.51-4.5 584.62-3.08 586.29-2.31 587.95-1.55 590.17-1.55ZM610.12 0L607.75 0 607.75-24.88 609.05-24.88Q609.7-24.88 609.8-24.25L609.8-24.25 610.02-20.5Q611.72-22.65 613.98-23.96 616.25-25.28 619.02-25.28L619.02-25.28Q621.07-25.28 622.63-24.63 624.2-23.98 625.22-22.75 626.25-21.53 626.77-19.8 627.3-18.07 627.3-15.9L627.3-15.9 627.3 0 624.92 0 624.92-15.9Q624.92-19.4 623.32-21.39 621.72-23.38 618.42-23.38L618.42-23.38Q615.97-23.38 613.87-22.11 611.77-20.85 610.12-18.65L610.12-18.65 610.12 0ZM653.74 0L652.42 0Q651.79 0 651.69-0.65L651.69-0.65 651.44-4.58Q649.79-2.33 647.58-1 645.37 0.33 642.62 0.33L642.62 0.33Q638.04 0.33 635.48-2.85 632.92-6.03 632.92-12.38L632.92-12.38Q632.92-15.1 633.63-17.46 634.34-19.83 635.73-21.56 637.12-23.3 639.13-24.3 641.14-25.3 643.77-25.3L643.77-25.3Q646.29-25.3 648.14-24.36 649.99-23.43 651.34-21.63L651.34-21.63 651.34-36.38 653.74-36.38 653.74 0ZM643.29-1.6L643.29-1.6Q645.77-1.6 647.77-2.88 649.77-4.15 651.34-6.43L651.34-6.43 651.34-19.55Q649.89-21.68 648.16-22.55 646.42-23.43 644.22-23.43L644.22-23.43Q642.02-23.43 640.37-22.63 638.72-21.83 637.61-20.36 636.49-18.9 635.93-16.86 635.37-14.83 635.37-12.38L635.37-12.38Q635.37-6.83 637.42-4.21 639.47-1.6 643.29-1.6ZM676.32-22.63L675.79-21.8Q675.62-21.45 675.24-21.45L675.24-21.45Q674.97-21.45 674.53-21.76 674.09-22.08 673.38-22.46 672.67-22.85 671.63-23.16 670.59-23.48 669.09-23.48L669.09-23.48Q667.74-23.48 666.63-23.09 665.52-22.7 664.73-22.05 663.94-21.4 663.5-20.54 663.07-19.68 663.07-18.73L663.07-18.73Q663.07-17.55 663.67-16.78 664.27-16 665.24-15.45 666.22-14.9 667.45-14.5 668.69-14.1 669.99-13.7 671.29-13.3 672.53-12.81 673.77-12.33 674.74-11.6 675.72-10.88 676.32-9.83 676.92-8.78 676.92-7.28L676.92-7.28Q676.92-5.65 676.33-4.25 675.74-2.85 674.63-1.83 673.52-0.8 671.89-0.2 670.27 0.4 668.19 0.4L668.19 0.4Q665.57 0.4 663.67-0.44 661.77-1.28 660.27-2.63L660.27-2.63 660.84-3.48Q660.97-3.68 661.12-3.78 661.27-3.88 661.54-3.88L661.54-3.88Q661.87-3.88 662.34-3.48 662.82-3.08 663.58-2.61 664.34-2.15 665.48-1.75 666.62-1.35 668.29-1.35L668.29-1.35Q669.87-1.35 671.07-1.79 672.27-2.23 673.07-2.98 673.87-3.73 674.28-4.74 674.69-5.75 674.69-6.88L674.69-6.88Q674.69-8.13 674.09-8.95 673.49-9.78 672.52-10.35 671.54-10.93 670.3-11.33 669.07-11.73 667.75-12.13 666.44-12.53 665.2-13 663.97-13.48 662.99-14.2 662.02-14.93 661.42-15.96 660.82-17 660.82-18.55L660.82-18.55Q660.82-19.88 661.39-21.1 661.97-22.33 663.03-23.25 664.09-24.18 665.62-24.73 667.14-25.28 669.04-25.28L669.04-25.28Q671.32-25.28 673.08-24.63 674.84-23.98 676.32-22.63L676.32-22.63Z" opacity="1" transform="matrix(1,0,0,1,0,0)" fill="#77d4fc" class="undefined-text-1" data-fill-palette-color="secondary" id="text-1"></path></svg></g></svg></g></svg></g></svg></g><g><svg viewBox="0 0 245.65351679999995 208.81153404099166" height="208.81153404099166" width="245.65351679999995"><g><svg xmlns="http://www.w3.org/2000/svg" xmlns:xlink="http://www.w3.org/1999/xlink" version="1.1" x="0" y="0" viewBox="0 0 99.26300811767578 84.3759994506836" enable-background="new 0 0 99.267 84.375" xml:space="preserve" width="245.65351679999995" height="208.81153404099166" class="icon-icon-0" data-fill-palette-color="accent" id="icon-0"><g fill="#8dbdff" data-fill-palette-color="accent"><path d="M96.785 0h-29.78c-1.372 0-2.481 1.111-2.481 2.483v79.411c0 1.371 1.109 2.481 2.481 2.481h7.443l0 0h0.003c0.326 0 0.634-0.068 0.922-0.185 0.106-0.044 0.19-0.116 0.286-0.175 0.169-0.097 0.337-0.188 0.479-0.321 0.092-0.089 0.158-0.196 0.234-0.297 0.112-0.14 0.22-0.276 0.3-0.439 0.058-0.125 0.083-0.258 0.123-0.391 0.035-0.127 0.099-0.232 0.115-0.363l4.985-39.863 4.981 39.863c0.017 0.131 0.08 0.237 0.117 0.363 0.037 0.133 0.064 0.266 0.123 0.391 0.079 0.163 0.19 0.3 0.298 0.439 0.079 0.103 0.143 0.208 0.235 0.297 0.143 0.134 0.312 0.228 0.48 0.321 0.098 0.059 0.177 0.131 0.284 0.175 0.289 0.116 0.597 0.185 0.92 0.185h0.005l0 0h7.444c1.371 0 2.481-1.11 2.481-2.481V2.483C99.267 1.111 98.156 0 96.785 0zM84.296 21.848c-0.033-0.166-0.089-0.313-0.155-0.466-0.063-0.15-0.125-0.294-0.215-0.426-0.082-0.123-0.185-0.226-0.289-0.333-0.119-0.122-0.235-0.234-0.375-0.329-0.121-0.081-0.252-0.136-0.391-0.197-0.161-0.07-0.316-0.13-0.491-0.165-0.063-0.012-0.111-0.05-0.176-0.059-0.109-0.014-0.205 0.022-0.308 0.022-0.105 0-0.203-0.036-0.309-0.022-0.067 0.008-0.115 0.046-0.178 0.059-0.174 0.035-0.329 0.095-0.489 0.165-0.14 0.059-0.272 0.117-0.392 0.199-0.143 0.094-0.255 0.205-0.375 0.324-0.106 0.108-0.208 0.213-0.293 0.338-0.088 0.131-0.149 0.272-0.213 0.421-0.065 0.154-0.122 0.303-0.155 0.469-0.016 0.063-0.053 0.114-0.06 0.179l-7.175 57.385h-2.771V4.964h24.815v74.449h-2.771l-7.174-57.385C84.35 21.962 84.311 21.911 84.296 21.848z" fill="#8dbdff" data-fill-palette-color="accent"></path><path d="M39.707 0h-5.088c-1.233 0-2.279 0.907-2.457 2.127-0.437 3.032-3.062 5.319-6.104 5.319-3.043 0-5.667-2.287-6.105-5.319C19.776 0.907 18.73 0 17.497 0h-5.088C5.334 0 0 10.668 0 24.816c0 1.372 1.111 2.482 2.482 2.482h7.444v19.853c0 1.372 1.111 2.481 2.482 2.481h27.298c1.371 0 2.482-1.109 2.482-2.481V27.298h7.446c1.371 0 2.48-1.11 2.48-2.482C52.114 10.668 46.78 0 39.707 0zM39.707 14.89c-1.372 0-2.481 1.112-2.481 2.482v4.963 2.481 19.855H14.89V24.816v-2.481-4.963c0-1.371-1.111-2.482-2.481-2.482-1.371 0-2.482 1.112-2.482 2.482v4.963H5.031C5.582 11.656 9.586 4.964 12.409 4.964h2.481 0.676c1.553 4.364 5.739 7.445 10.491 7.445 4.753 0 8.938-3.081 10.492-7.445h0.676 2.481c2.822 0 6.828 6.691 7.376 17.372h-4.895v-4.963C42.188 16.001 41.078 14.89 39.707 14.89z" fill="#8dbdff" data-fill-palette-color="accent"></path><path d="M17.372 57.078h-4.963c-1.371 0-2.482 1.113-2.482 2.481v14.89H4.963C2.226 74.449 0 76.677 0 79.413c0 2.737 2.226 4.963 4.963 4.963h12.409c1.37 0 2.481-1.11 2.481-2.481V59.559C19.853 58.191 18.742 57.078 17.372 57.078z" fill="#8dbdff" data-fill-palette-color="accent"></path><path d="M42.188 57.078h-4.963c-1.371 0-2.482 1.113-2.482 2.481v14.89H29.78c-2.737 0-4.963 2.229-4.963 4.964 0 2.737 2.227 4.963 4.963 4.963h12.409c1.372 0 2.481-1.11 2.481-2.481V59.559C44.669 58.191 43.561 57.078 42.188 57.078z" fill="#8dbdff" data-fill-palette-color="accent"></path></g></svg></g></svg></g></svg></g><defs></defs></svg><rect width="395.52" height="125.65714470283875" fill="none" stroke="none" visibility="hidden"></rect></g></svg></g></svg>