<svg xmlns="http://www.w3.org/2000/svg" version="1.1" xmlns:xlink="http://www.w3.org/1999/xlink" xmlns:svgjs="http://svgjs.dev/svgjs" width="1000" height="1000" viewBox="0 0 1000 1000"><rect width="1000" height="1000" fill="#ffffff"></rect><g transform="matrix(0.7,0,0,0.7,149.57597814781263,305.4372590390404)"><svg viewBox="0 0 396 220" data-background-color="#ffffff" preserveAspectRatio="xMidYMid meet" height="555" width="1000" xmlns="http://www.w3.org/2000/svg" xmlns:xlink="http://www.w3.org/1999/xlink"><g id="tight-bounds" transform="matrix(1,0,0,1,0.24012478076258503,0.17709912847134035)"><svg viewBox="0 0 395.52 219.64580174305732" height="219.64580174305732" width="395.52"><g><svg viewBox="0 0 395.52 219.64580174305732" height="219.64580174305732" width="395.52"><g transform="matrix(1,0,0,1,0,142.76604716348112)"><svg viewBox="0 0 395.52 76.8797545795762" height="76.8797545795762" width="395.52"><g><svg viewBox="0 0 395.52 76.8797545795762" height="76.8797545795762" width="395.52"><g><svg viewBox="0 0 395.52 63.23266597510861" height="63.23266597510861" width="395.52"><g transform="matrix(1,0,0,1,0,0)"><svg width="395.52" viewBox="1.886190414428711 -35.27011489868164 301.7801513671875 48.24628448486328" height="63.23266597510861" data-palette-color="#0080ff"><path d="M24.722-22.998l-17.546 2.483 1.783 12.595 15.129-2.141 0.597 4.218-15.129 2.141 2.222 15.703-4.693 0.664-5.199-36.734 22.239-3.147zM36.54 8.717l-4.43-36.834 4.706-0.566 4.43 36.834zM71.583-32.014l0.398 4.241-11.111 1.044 3.07 32.696-4.769 0.448-3.07-32.696-11.111 1.043-0.398-4.241zM110.838-16.041c4.503 1.197 6.872 4.013 7.107 8.447v0c0.179 3.389-0.703 5.959-2.647 7.71-1.95 1.752-5.305 2.754-10.065 3.006v0l-12.802 0.677-1.96-37.048 12.802-0.677c4.334-0.229 7.423 0.425 9.267 1.963 1.85 1.531 2.864 3.978 3.042 7.34v0c0.105 1.984-0.222 3.69-0.981 5.119-0.759 1.429-2.013 2.583-3.763 3.463zM95.416-29.495l0.659 12.463 8.069-0.427c4.594-0.243 6.798-2.433 6.612-6.569v0c-0.121-2.283-0.712-3.871-1.774-4.763-1.055-0.892-2.888-1.269-5.497-1.131v0zM113.096-7.638c-0.116-2.184-0.909-3.734-2.38-4.651-1.47-0.917-3.59-1.302-6.359-1.156v0l-8.069 0.427 0.664 12.563 8.069-0.427c3.062-0.162 5.203-0.783 6.421-1.862 1.218-1.079 1.769-2.711 1.654-4.894zM140.581 2.901c-4.733 0.083-8.293-1.055-10.682-3.413-2.395-2.352-3.631-5.731-3.708-10.137v0l-0.422-24.126 4.8-0.084 0.422 24.126c0.055 3.166 0.881 5.549 2.475 7.148 1.595 1.606 3.942 2.381 7.042 2.327v0c3.1-0.054 5.418-0.912 6.956-2.572 1.531-1.654 2.269-4.064 2.214-7.23v0l-0.422-24.126 4.799-0.084 0.422 24.126c0.077 4.406-1.037 7.826-3.341 10.26-2.311 2.441-5.829 3.703-10.555 3.785zM164.631 1.975l0.325-37.099 4.74 0.042-0.325 37.098zM184.413-1.809l15.512 0.488-0.134 4.258-20.25-0.638 1.168-37.081 4.737 0.149zM221.207-32.829c6.088 0.389 10.588 2.253 13.501 5.592 2.906 3.345 4.165 8.062 3.775 14.149v0c-0.391 6.121-2.232 10.629-5.523 13.526-3.291 2.896-7.997 4.149-14.119 3.757v0l-12.304-0.786 2.365-37.024zM233.613-13.549c0.312-4.883-0.599-8.552-2.734-11.007-2.127-2.461-5.44-3.835-9.937-4.122v0l-7.575-0.484-1.835 28.722 7.575 0.484c4.524 0.289 7.994-0.652 10.411-2.822 2.41-2.164 3.775-5.754 4.095-10.771zM250.045 2.566l17.884 1.763-0.404 4.09-22.6-2.228 3.64-36.921 22.351 2.203-0.403 4.091-17.634-1.739-1.206 12.231 15.206 1.499-0.403 4.09-15.206-1.499zM296.485 12.266l-7.408-16.82-7.139-0.939-2.05 15.575-4.699-0.618 4.84-36.783 12.859 1.692c8.024 1.056 11.568 5.143 10.631 12.262v0c-0.371 2.816-1.343 4.997-2.918 6.545-1.57 1.555-3.731 2.417-6.483 2.587v0l7.761 17.209zM284.186-22.576l-1.705 12.958 8.159 1.074c4.785 0.63 7.476-1.188 8.071-5.454v0c0.298-2.267-0.082-4.005-1.14-5.213-1.058-1.208-2.8-1.972-5.225-2.291v0z" opacity="1" transform="matrix(1,0,0,1,0,0)" fill="#000000" class="undefined-text-0" data-fill-palette-color="primary" id="text-0"></path></svg></g></svg></g><g transform="matrix(1,0,0,1,118.31980799999998,68.31132939515473)"><svg viewBox="0 0 158.88038400000002 8.568425184421471" height="8.568425184421471" width="158.88038400000002"><g transform="matrix(1,0,0,1,0,0)"><svg width="158.88038400000002" viewBox="0.10000000149011612 -38.22999954223633 861.8500366210938 46.47999954223633" height="8.568425184421471" data-palette-color="#0080ff"><path d="M20.04-24.19L20.04-24.19 17.43-24.29 14.72-24.29 14.72 0 4.22 0 4.25-24.29 3.86-24.29 1.54-24.19Q0.1-24.19 0.1-25.18 0.1-26.17 1.42-26.17L1.42-26.17 4.32-26.07Q4.83-30.49 8.25-32.84L8.25-32.84Q11.38-34.99 16.43-34.99L16.43-34.99Q21.17-34.99 22.95-33.11L22.95-33.11Q23.44-32.59 23.44-32.13L23.44-32.13Q23.44-31.05 22.34-31.05L22.34-31.05Q21.8-31.05 21.29-31.42L21.29-31.42 20.41-32.03Q18.99-33.08 17.36-33.18L17.36-33.18Q16.92-33.2 16.44-33.2 15.97-33.2 15.55-33.15 15.14-33.11 14.72-33.06L14.72-33.06 14.72-26.07 16.85-26.07 20.12-26.17Q21.44-26.17 21.44-25.18 21.44-24.19 20.04-24.19ZM29.73-30.35Q27.22-30.35 25.8-31.47 24.39-32.59 24.39-34.42L24.39-34.42Q24.39-35.96 25.95-37.06L25.95-37.06Q27.61-38.23 29.47-38.23 31.32-38.23 32.33-37.87 33.35-37.5 34.06-36.91L34.06-36.91Q35.47-35.72 35.47-34.13L35.47-34.13Q35.47-32.54 33.86-31.45L33.86-31.45Q32.25-30.35 29.73-30.35ZM24.61 0L24.61-26.07 35.1-26.07 35.1 0 24.61 0ZM61.15 0L61.15-23.41Q60.54-23.8 59.83-23.8 59.13-23.8 58.37-23.47 57.61-23.14 56.78-22.56L56.78-22.56Q55.05-21.31 53.58-19.24L53.58-19.24 53.58 0 43.09 0 43.09-26.07 53.58-26.07 53.58-21.9Q57.76-26.51 63.03-26.51L63.03-26.51Q71.65-26.51 71.65-18.16L71.65-18.16 71.65 0 61.15 0ZM98.11 0L98.11-1.34Q95.06 0.46 91.66 0.46 88.25 0.46 85.67-0.55 83.1-1.56 81.27-3.37L81.27-3.37Q77.46-7.15 77.46-13.21L77.46-13.21Q77.46-18.82 81.22-22.56L81.22-22.56Q85.22-26.51 91.67-26.51L91.67-26.51Q95.09-26.51 98.11-25.02L98.11-25.02 98.11-34.55 108.17-34.55 108.17 0 98.11 0ZM91.18-24.73L91.18-24.73Q90.42-24.73 89.74-24.63L89.74-24.63 89.74-1.49Q90.62-1.34 91.64-1.34L91.64-1.34Q95.04-1.34 98.11-3.49L98.11-3.49 98.11-22.85Q94.82-24.73 91.18-24.73ZM131.82 5.76L131.82 5.76Q133.31 5.3 133.9 4.57L133.9 4.57Q134.73 3.59 135.9 1.05L135.9 1.05 136.46-0.24 123.16-26.07 134.26-26.07 141.2-11.33 145.2-20.68Q146.3-23.24 146.64-24.58 146.98-25.93 147.31-26.22 147.64-26.51 148.12-26.51 148.6-26.51 148.86-26.22 149.13-25.93 149.13-25.63 149.13-25.34 149.07-25.01 149.01-24.68 148.83-24.13 148.64-23.58 148.3-22.75L148.3-22.75 138.17 0.73Q136.36 4.98 134.7 6.71L134.7 6.71Q133.29 8.25 131.84 8.25 130.38 8.25 130.38 7.24 130.38 6.23 131.82 5.76ZM151.13-13.18L151.13-13.18Q151.13-16.11 152.19-18.52 153.26-20.92 155.11-22.71L155.11-22.71Q159.12-26.51 165.17-26.51L165.17-26.51Q171.35-26.51 175.23-22.56L175.23-22.56Q178.94-18.82 178.94-13.11L178.94-13.11Q178.94-7.37 175.13-3.52L175.13-3.52Q171.2 0.46 165.07 0.46L165.07 0.46Q159.09 0.46 155.16-3.32L155.16-3.32Q151.13-7.23 151.13-13.18ZM164.39-24.71L164.39-1.37Q164.58-1.34 164.78-1.34L164.78-1.34 165.12-1.34Q170.05-1.34 173.4-4.39L173.4-4.39Q176.96-7.69 176.96-13.04L176.96-13.04Q176.96-18.26 173.62-21.51L173.62-21.51Q170.32-24.73 165.1-24.73L165.1-24.73 164.73-24.73Q164.56-24.73 164.39-24.71L164.39-24.71ZM193.73 0.46L193.73 0.46Q185.16 0.46 185.16-7.91L185.16-7.91 185.16-26.07 195.61-26.07 195.61-2.17Q195.86-2.05 196.22-2.05L196.22-2.05 197.03-2.05Q198.98-2.05 201.67-4.69L201.67-4.69Q202.47-5.49 203.18-6.45L203.18-6.45 203.18-26.07 213.68-26.07 213.68 0 203.18 0 203.18-3.76Q199.2 0.46 193.73 0.46ZM221.66 0L221.66-26.07 232.16-26.07 232.16-18.41Q233.84-22.58 235.78-24.55 237.72-26.51 239.68-26.51L239.68-26.51Q240.78-26.51 241.42-25.94 242.07-25.37 242.07-24.66 242.07-23.95 241.87-23.54 241.68-23.12 241.36-22.83L241.36-22.83Q240.7-22.22 240.12-22.22L240.12-22.22Q239.19-22.22 238.75-22.41L238.75-22.41Q237.99-22.75 237.41-22.75 236.82-22.75 235.92-21.81 235.01-20.87 234.18-19.21L234.18-19.21Q232.16-15.16 232.16-10.42L232.16-10.42 232.16 0 221.66 0ZM274.41 0L274.41-23.41Q273.8-23.8 273.1-23.8 272.39-23.8 271.63-23.47 270.87-23.14 270.04-22.56L270.04-22.56Q268.31-21.31 266.85-19.24L266.85-19.24 266.85 0 256.35 0 256.35-26.07 266.85-26.07 266.85-21.9Q271.02-26.51 276.29-26.51L276.29-26.51Q284.91-26.51 284.91-18.16L284.91-18.16 284.91 0 274.41 0ZM315.55-5.93L315.55-5.93Q316.5-5.93 316.5-5.05L316.5-5.05Q316.5-4.39 315.65-3.49L315.65-3.49Q311.79 0.46 305.08 0.46L305.08 0.46Q299.04 0.46 294.92-3.17L294.92-3.17Q290.65-6.96 290.65-12.74L290.65-12.74Q290.65-18.65 294.5-22.46L294.5-22.46Q298.58-26.51 305.34-26.51L305.34-26.51Q310.76-26.51 314.45-23.22L314.45-23.22Q318.43-19.68 318.43-13.92L318.43-13.92Q318.43-13.09 318.38-12.16L318.38-12.16 302.27-12.16 302.27-1.68Q303.93-1.34 306-1.34L306-1.34Q310.4-1.34 313.5-4.25L313.5-4.25Q314.13-4.88 314.4-5.25L314.4-5.25Q314.96-5.93 315.55-5.93ZM309.03-13.94L309.03-24.27Q307.44-24.73 305.44-24.73 303.44-24.73 302.27-24.46L302.27-24.46 302.27-13.94 309.03-13.94ZM321.95 0.46Q321.6 0.46 321.31 0.18 321.01-0.1 321.01-0.49L321.01-0.49Q321.01-1.27 321.89-1.93L321.89-1.93Q322.77-2.59 323.16-3.13L323.16-3.13Q323.16-3.13 329.63-11.06L329.63-11.06 320.65-26.07 331.76-26.07 336.93-17.46Q341.45-23.27 341.79-23.8L341.79-23.8Q342.45-24.83 342.67-25.39L342.67-25.39Q343.13-26.51 343.96-26.51L343.96-26.51Q344.35-26.51 344.66-26.26 344.97-26 344.97-25.63 344.97-25.27 344.83-24.9 344.7-24.54 344.38-23.97L344.38-23.97Q343.74-22.9 342.16-20.87L342.16-20.87 338.03-15.63 347.43 0 336.27 0 330.71-9.28 324.75-1.78Q323.21 0.15 322.55 0.39L322.55 0.39Q322.31 0.46 321.95 0.46ZM361.2 0.46L361.2 0.46Q351.63 0.46 351.63-8.28L351.63-8.28 351.6-24.29 348.8-24.17Q347.48-24.17 347.48-25.17 347.48-26.17 348.89-26.17L348.89-26.17 351.24-26.07 351.6-26.07 351.6-29.86 362.08-34.55 362.08-26.07 365.35-26.07 367.67-26.17Q369.11-26.17 369.11-25.15L369.11-25.15Q369.11-24.68 368.71-24.43 368.3-24.17 367.79-24.17L367.79-24.17 364.76-24.29 362.08-24.29 362.08-1.34Q364.93-1.39 366.84-2.98L366.84-2.98Q367.74-3.66 368.12-4.74 368.5-5.81 368.8-6.12 369.11-6.42 369.52-6.42L369.52-6.42Q369.94-6.42 370.23-6.09 370.52-5.76 370.52-5.31 370.52-4.86 370.28-4.31 370.04-3.76 369.55-3.15L369.55-3.15Q368.45-1.78 367.01-0.98L367.01-0.98Q364.4 0.46 361.2 0.46ZM402.4 0.46L402.4 0.46Q399.01 0.46 395.84-1.07L395.84-1.07 395.84 0 385.8 0 385.8-34.55 395.84-34.55 395.84-24.83Q398.94-26.51 402.33-26.51 405.72-26.51 408.29-25.51 410.85-24.51 412.68-22.75L412.68-22.75Q416.47-19.04 416.47-13.26L416.47-13.26Q416.47-7.42 412.73-3.56L412.73-3.56Q408.87 0.46 402.4 0.46ZM402.33-24.73L402.33-24.73Q398.72-24.73 395.84-22.73L395.84-22.73 395.84-3.15Q399.03-1.34 403.01-1.34L403.01-1.34 403.65-1.34Q403.94-1.34 404.21-1.39L404.21-1.39 404.21-24.58Q403.28-24.73 402.33-24.73ZM445.39-5.93L445.39-5.93Q446.35-5.93 446.35-5.05L446.35-5.05Q446.35-4.39 445.49-3.49L445.49-3.49Q441.63 0.46 434.92 0.46L434.92 0.46Q428.89 0.46 424.76-3.17L424.76-3.17Q420.49-6.96 420.49-12.74L420.49-12.74Q420.49-18.65 424.35-22.46L424.35-22.46Q428.43-26.51 435.19-26.51L435.19-26.51Q440.61-26.51 444.3-23.22L444.3-23.22Q448.28-19.68 448.28-13.92L448.28-13.92Q448.28-13.09 448.23-12.16L448.23-12.16 432.11-12.16 432.11-1.68Q433.77-1.34 435.85-1.34L435.85-1.34Q440.24-1.34 443.34-4.25L443.34-4.25Q443.98-4.88 444.25-5.25L444.25-5.25Q444.81-5.93 445.39-5.93ZM438.88-13.94L438.88-24.27Q437.29-24.73 435.29-24.73 433.29-24.73 432.11-24.46L432.11-24.46 432.11-13.94 438.88-13.94ZM452.57-3.27L452.57-3.27Q452.57-3.64 452.83-3.94 453.08-4.25 453.5-4.25 453.91-4.25 454.18-4L454.18-4Q454.18-4 454.79-3.44L454.79-3.44Q457.33-1.22 461.9-1.22L461.9-1.22Q464.97-1.22 465.85-2.49L465.85-2.49Q466.1-2.83 466.1-3.19 466.1-3.54 465.96-3.87 465.83-4.2 465.39-4.68 464.95-5.15 464.14-5.81L464.14-5.81 461.99-7.54Q456.67-11.69 454.69-14.28L454.69-14.28Q452.89-16.65 452.89-19.12L452.89-19.12Q452.89-22.22 455.74-24.32L455.74-24.32Q458.7-26.51 463.39-26.51L463.39-26.51Q466.68-26.51 468.59-25.76 470.49-25 471.27-24.38 472.05-23.75 472.05-23.24L472.05-23.24Q472.05-22.19 471.22-22.19L471.22-22.19Q470.83-22.19 470.5-22.47 470.17-22.75 469.2-23.43 468.22-24.1 466.61-24.49 465-24.88 463.6-24.88 462.21-24.88 461.64-24.44 461.07-24 461.07-23.57 461.07-23.14 461.24-22.77 461.41-22.39 461.87-21.88L461.87-21.88Q462.95-20.61 465.31-18.87 467.68-17.14 469.32-15.7 470.95-14.26 471.88-13.04L471.88-13.04Q473.57-10.84 473.57-8.59 473.57-6.35 472.74-4.75 471.91-3.15 470.37-2L470.37-2Q467.12 0.46 461.7 0.46L461.7 0.46Q457.35 0.46 454.45-1.2L454.45-1.2Q452.57-2.25 452.57-3.27ZM489.48 0.46L489.48 0.46Q479.91 0.46 479.91-8.28L479.91-8.28 479.89-24.29 477.08-24.17Q475.76-24.17 475.76-25.17 475.76-26.17 477.18-26.17L477.18-26.17 479.52-26.07 479.89-26.07 479.89-29.86 490.36-34.55 490.36-26.07 493.63-26.07 495.95-26.17Q497.39-26.17 497.39-25.15L497.39-25.15Q497.39-24.68 496.99-24.43 496.59-24.17 496.07-24.17L496.07-24.17 493.05-24.29 490.36-24.29 490.36-1.34Q493.22-1.39 495.12-2.98L495.12-2.98Q496.02-3.66 496.4-4.74 496.78-5.81 497.09-6.12 497.39-6.42 497.81-6.42L497.81-6.42Q498.22-6.42 498.51-6.09 498.81-5.76 498.81-5.31 498.81-4.86 498.56-4.31 498.32-3.76 497.83-3.15L497.83-3.15Q496.73-1.78 495.29-0.98L495.29-0.98Q492.68 0.46 489.48 0.46ZM529.91-24.19L529.91-24.19 527.29-24.29 524.58-24.29 524.58 0 514.09 0 514.11-24.29 513.72-24.29 511.4-24.19Q509.96-24.19 509.96-25.18 509.96-26.17 511.28-26.17L511.28-26.17 514.18-26.07Q514.7-30.49 518.11-32.84L518.11-32.84Q521.24-34.99 526.29-34.99L526.29-34.99Q531.03-34.99 532.81-33.11L532.81-33.11Q533.3-32.59 533.3-32.13L533.3-32.13Q533.3-31.05 532.2-31.05L532.2-31.05Q531.66-31.05 531.15-31.42L531.15-31.42 530.27-32.03Q528.86-33.08 527.22-33.18L527.22-33.18Q526.78-33.2 526.3-33.2 525.83-33.2 525.41-33.15 525-33.11 524.58-33.06L524.58-33.06 524.58-26.07 526.71-26.07 529.98-26.17Q531.3-26.17 531.3-25.18 531.3-24.19 529.91-24.19ZM539.6-30.35Q537.08-30.35 535.67-31.47 534.25-32.59 534.25-34.42L534.25-34.42Q534.25-35.96 535.81-37.06L535.81-37.06Q537.47-38.23 539.33-38.23 541.18-38.23 542.2-37.87 543.21-37.5 543.92-36.91L543.92-36.91Q545.33-35.72 545.33-34.13L545.33-34.13Q545.33-32.54 543.72-31.45L543.72-31.45Q542.11-30.35 539.6-30.35ZM534.47 0L534.47-26.07 544.97-26.07 544.97 0 534.47 0ZM562.98 0.46L562.98 0.46Q553.41 0.46 553.41-8.28L553.41-8.28 553.39-24.29 550.58-24.17Q549.26-24.17 549.26-25.17 549.26-26.17 550.68-26.17L550.68-26.17 553.02-26.07 553.39-26.07 553.39-29.86 563.86-34.55 563.86-26.07 567.13-26.07 569.45-26.17Q570.89-26.17 570.89-25.15L570.89-25.15Q570.89-24.68 570.49-24.43 570.09-24.17 569.57-24.17L569.57-24.17 566.55-24.29 563.86-24.29 563.86-1.34Q566.72-1.39 568.62-2.98L568.62-2.98Q569.53-3.66 569.9-4.74 570.28-5.81 570.59-6.12 570.89-6.42 571.31-6.42L571.31-6.42Q571.72-6.42 572.02-6.09 572.31-5.76 572.31-5.31 572.31-4.86 572.06-4.31 571.82-3.76 571.33-3.15L571.33-3.15Q570.23-1.78 568.79-0.98L568.79-0.98Q566.18 0.46 562.98 0.46ZM592.71-30.35Q590.2-30.35 588.78-31.47 587.37-32.59 587.37-34.42L587.37-34.42Q587.37-35.96 588.93-37.06L588.93-37.06Q590.59-38.23 592.44-38.23 594.3-38.23 595.31-37.87 596.33-37.5 597.03-36.91L597.03-36.91Q598.45-35.72 598.45-34.13L598.45-34.13Q598.45-32.54 596.84-31.45L596.84-31.45Q595.23-30.35 592.71-30.35ZM587.59 0L587.59-26.07 598.08-26.07 598.08 0 587.59 0ZM624.13 0L624.13-23.41Q623.52-23.8 622.81-23.8 622.11-23.8 621.35-23.47 620.59-23.14 619.76-22.56L619.76-22.56Q618.03-21.31 616.56-19.24L616.56-19.24 616.56 0 606.07 0 606.07-26.07 616.56-26.07 616.56-21.9Q620.74-26.51 626.01-26.51L626.01-26.51Q634.63-26.51 634.63-18.16L634.63-18.16 634.63 0 624.13 0ZM651.84-3.27L651.84-3.27Q651.84-3.64 652.09-3.94 652.35-4.25 652.76-4.25 653.18-4.25 653.45-4L653.45-4Q653.45-4 654.06-3.44L654.06-3.44Q656.6-1.22 661.16-1.22L661.16-1.22Q664.24-1.22 665.12-2.49L665.12-2.49Q665.36-2.83 665.36-3.19 665.36-3.54 665.23-3.87 665.09-4.2 664.65-4.68 664.21-5.15 663.41-5.81L663.41-5.81 661.26-7.54Q655.94-11.69 653.96-14.28L653.96-14.28Q652.15-16.65 652.15-19.12L652.15-19.12Q652.15-22.22 655.01-24.32L655.01-24.32Q657.96-26.51 662.65-26.51L662.65-26.51Q665.95-26.51 667.85-25.76 669.76-25 670.54-24.38 671.32-23.75 671.32-23.24L671.32-23.24Q671.32-22.19 670.49-22.19L670.49-22.19Q670.1-22.19 669.77-22.47 669.44-22.75 668.46-23.43 667.49-24.1 665.87-24.49 664.26-24.88 662.87-24.88 661.48-24.88 660.91-24.44 660.33-24 660.33-23.57 660.33-23.14 660.5-22.77 660.67-22.39 661.14-21.88L661.14-21.88Q662.21-20.61 664.58-18.87 666.95-17.14 668.58-15.7 670.22-14.26 671.15-13.04L671.15-13.04Q672.83-10.84 672.83-8.59 672.83-6.35 672-4.75 671.17-3.15 669.63-2L669.63-2Q666.39 0.46 660.97 0.46L660.97 0.46Q656.62 0.46 653.72-1.2L653.72-1.2Q651.84-2.25 651.84-3.27ZM701.37-5.93L701.37-5.93Q702.32-5.93 702.32-5.05L702.32-5.05Q702.32-4.39 701.47-3.49L701.47-3.49Q697.61 0.46 690.9 0.46L690.9 0.46Q684.87 0.46 680.74-3.17L680.74-3.17Q676.47-6.96 676.47-12.74L676.47-12.74Q676.47-18.65 680.33-22.46L680.33-22.46Q684.4-26.51 691.17-26.51L691.17-26.51Q696.59-26.51 700.27-23.22L700.27-23.22Q704.25-19.68 704.25-13.92L704.25-13.92Q704.25-13.09 704.2-12.16L704.2-12.16 688.09-12.16 688.09-1.68Q689.75-1.34 691.82-1.34L691.82-1.34Q696.22-1.34 699.32-4.25L699.32-4.25Q699.95-4.88 700.22-5.25L700.22-5.25Q700.78-5.93 701.37-5.93ZM694.85-13.94L694.85-24.27Q693.26-24.73 691.26-24.73 689.26-24.73 688.09-24.46L688.09-24.46 688.09-13.94 694.85-13.94ZM720.22-24.54L720.22-1.56Q721.36-1.34 722.52-1.34 723.68-1.34 724.77-1.53 725.86-1.71 726.83-2.05L726.83-2.05Q728.91-2.78 730.18-3.91L730.18-3.91Q731.08-4.69 731.49-4.69L731.49-4.69Q732.42-4.69 732.42-3.86 732.42-3.03 730.91-1.88L730.91-1.88Q727.39 0.46 722.46 0.46L722.46 0.46Q716.04 0.46 712.09-3.39L712.09-3.39Q708.2-7.2 708.2-13.28L708.2-13.28Q708.2-19.04 712.33-22.8L712.33-22.8Q716.43-26.51 722.63-26.51L722.63-26.51Q726.17-26.51 729.44-25.05L729.44-25.05Q731.93-23.97 731.93-22.83L731.93-22.83Q731.93-22.34 731.65-22.08 731.37-21.83 731.03-21.83L731.03-21.83Q730.52-21.83 729.71-22.39L729.71-22.39Q728.13-23.9 725-24.51L725-24.51Q723.88-24.73 722.53-24.73 721.19-24.73 720.22-24.54L720.22-24.54ZM735.74-13.18L735.74-13.18Q735.74-16.11 736.8-18.52 737.86-20.92 739.72-22.71L739.72-22.71Q743.72-26.51 749.78-26.51L749.78-26.51Q755.96-26.51 759.84-22.56L759.84-22.56Q763.55-18.82 763.55-13.11L763.55-13.11Q763.55-7.37 759.74-3.52L759.74-3.52Q755.81 0.46 749.68 0.46L749.68 0.46Q743.7 0.46 739.77-3.32L739.77-3.32Q735.74-7.23 735.74-13.18ZM749-24.71L749-1.37Q749.19-1.34 749.39-1.34L749.39-1.34 749.73-1.34Q754.66-1.34 758.01-4.39L758.01-4.39Q761.57-7.69 761.57-13.04L761.57-13.04Q761.57-18.26 758.23-21.51L758.23-21.51Q754.93-24.73 749.71-24.73L749.71-24.73 749.34-24.73Q749.17-24.73 749-24.71L749-24.71ZM787.86 0L787.86-23.41Q787.25-23.8 786.54-23.8 785.84-23.8 785.08-23.47 784.32-23.14 783.49-22.56L783.49-22.56Q781.76-21.31 780.29-19.24L780.29-19.24 780.29 0 769.8 0 769.8-26.07 780.29-26.07 780.29-21.9Q784.47-26.51 789.74-26.51L789.74-26.51Q798.36-26.51 798.36-18.16L798.36-18.16 798.36 0 787.86 0ZM824.82 0L824.82-1.34Q821.77 0.46 818.36 0.46 814.96 0.46 812.38-0.55 809.81-1.56 807.98-3.37L807.98-3.37Q804.17-7.15 804.17-13.21L804.17-13.21Q804.17-18.82 807.93-22.56L807.93-22.56Q811.93-26.51 818.38-26.51L818.38-26.51Q821.79-26.51 824.82-25.02L824.82-25.02 824.82-34.55 834.88-34.55 834.88 0 824.82 0ZM817.89-24.73L817.89-24.73Q817.13-24.73 816.45-24.63L816.45-24.63 816.45-1.49Q817.33-1.34 818.35-1.34L818.35-1.34Q821.75-1.34 824.82-3.49L824.82-3.49 824.82-22.85Q821.53-24.73 817.89-24.73ZM840.96-3.27L840.96-3.27Q840.96-3.64 841.21-3.94 841.47-4.25 841.89-4.25 842.3-4.25 842.57-4L842.57-4Q842.57-4 843.18-3.44L843.18-3.44Q845.72-1.22 850.28-1.22L850.28-1.22Q853.36-1.22 854.24-2.49L854.24-2.49Q854.48-2.83 854.48-3.19 854.48-3.54 854.35-3.87 854.21-4.2 853.77-4.68 853.34-5.15 852.53-5.81L852.53-5.81 850.38-7.54Q845.06-11.69 843.08-14.28L843.08-14.28Q841.27-16.65 841.27-19.12L841.27-19.12Q841.27-22.22 844.13-24.32L844.13-24.32Q847.09-26.51 851.77-26.51L851.77-26.51Q855.07-26.51 856.97-25.76 858.88-25 859.66-24.38 860.44-23.75 860.44-23.24L860.44-23.24Q860.44-22.19 859.61-22.19L859.61-22.19Q859.22-22.19 858.89-22.47 858.56-22.75 857.58-23.43 856.61-24.1 855-24.49 853.38-24.88 851.99-24.88 850.6-24.88 850.03-24.44 849.45-24 849.45-23.57 849.45-23.14 849.62-22.77 849.8-22.39 850.26-21.88L850.26-21.88Q851.33-20.61 853.7-18.87 856.07-17.14 857.71-15.7 859.34-14.26 860.27-13.04L860.27-13.04Q861.95-10.84 861.95-8.59 861.95-6.35 861.12-4.75 860.29-3.15 858.76-2L858.76-2Q855.51 0.46 850.09 0.46L850.09 0.46Q845.74 0.46 842.84-1.2L842.84-1.2Q840.96-2.25 840.96-3.27Z" opacity="1" transform="matrix(1,0,0,1,0,0)" fill="#000000" class="undefined-text-1" data-fill-palette-color="secondary" id="text-1"></path></svg></g></svg></g></svg></g></svg></g><g transform="matrix(1,0,0,1,94.97605392596377,0)"><svg viewBox="0 0 205.56789214807245 124.39144290975429" height="124.39144290975429" width="205.56789214807245"><g><svg xmlns="http://www.w3.org/2000/svg" xmlns:xlink="http://www.w3.org/1999/xlink" version="1.1" x="0" y="0" viewBox="0.0015072822570800781 0 156.9959259033203 95" enable-background="new 0 0 157 95" xml:space="preserve" height="124.39144290975429" width="205.56789214807245" class="icon-icon-0" data-fill-palette-color="accent" id="icon-0"><g fill="#0080ff" data-fill-palette-color="accent"><path d="M155.8 79.9c-0.9-1.2-23.4-28.7-72.4-45v-4.7c0-5.7 11.1-7.2 11.1-17.7C94.6 4.3 86.9 0 79.8 0c-8.6 0-13.3 5.3-13.3 5.3-1.2 1.2-2.6 4.1-0.7 6.9 2 2.8 5.8 1.5 6.8 0.6 0 0 3-2.7 6.1-2.7 2.4 0 4.6 1.6 4.6 3.8 0 5.4-9.9 6.9-9.9 15.5v5.6C24.4 51.2 2 78.7 1.1 79.9c-0.9 1.1-1.3 2.6-1 4 0.3 1.4 1.2 2.6 2.5 3.3C13.2 93 51.1 95 80.2 95c13.6 0 59-0.5 74.1-7.6 1.4-0.6 2.2-1.9 2.6-3.3C157.2 82.7 156.8 81.1 155.8 79.9zM80.2 85.2c-28 0-53.9-1.8-66.5-4.5 8.9-8.7 30-26.1 64.8-37.1 34.8 11.1 55.8 28.4 64.8 37.1C130.9 83.5 107.6 85.2 80.2 85.2z" fill="#000000" data-fill-palette-color="accent"></path></g></svg></g></svg></g><g></g></svg></g><defs></defs></svg><rect width="395.52" height="219.64580174305732" fill="none" stroke="none" visibility="hidden"></rect></g></svg></g></svg>